<?xml version="1.0" standalone="no"?>
<!DOCTYPE svg PUBLIC "-//W3C//DTD SVG 20010904//EN"
 "http://www.w3.org/TR/2001/REC-SVG-20010904/DTD/svg10.dtd">
<svg version="1.0" xmlns="http://www.w3.org/2000/svg"
 width="256.000000pt" height="256.000000pt" viewBox="0 0 256.000000 256.000000"
 preserveAspectRatio="xMidYMid meet">
<metadata>
Created by potrace 1.14, written by Peter Selinger 2001-2017
</metadata>
<g transform="translate(0.000000,256.000000) scale(0.100000,-0.100000)"
fill="#000000" stroke="none">
<path d="M1106 2549 c-93 -14 -243 -57 -336 -96 -47 -20 -87 -39 -90 -43 -3
-4 -13 -10 -23 -13 -24 -9 -162 -104 -200 -137 -238 -208 -389 -474 -441 -775
-20 -116 -14 -345 12 -465 110 -507 502 -896 1003 -995 94 -19 340 -28 409
-15 25 4 63 11 85 14 22 4 58 12 80 18 22 6 42 12 45 13 35 7 131 46 195 78
357 178 602 495 687 887 23 108 32 337 17 435 -12 75 -45 206 -67 265 -41 111
-157 319 -183 328 -5 2 -9 8 -9 13 0 18 -133 156 -205 214 -161 129 -360 221
-563 262 -89 17 -330 25 -416 12z"/>
</g>
</svg>
